<?xml version="1.0" encoding="UTF-8" standalone="no"?>
<svg xmlns:xlink="http://www.w3.org/1999/xlink" height="23.25px" width="64.6px" xmlns="http://www.w3.org/2000/svg">
  <g transform="matrix(1, 0, 0, 1, 0.0, 0.0)">
    <use height="23.25" transform="matrix(1.0, 0.0, 0.0, 1.0, 0.0, 0.0)" width="64.6" xlink:href="#shape0"/>
  </g>
  <defs>
    <g id="shape0" transform="matrix(1, 0, 0, 1, 0.0, 0.0)">
      <path d="M9.3 4.7 L6.85 19.7 7.35 19.7 Q8.15 19.7 8.35 19.4 L8.65 18.4 10.6 6.1 10.7 5.35 Q10.7 4.65 9.75 4.65 L9.3 4.7 M15.65 5.7 L13.55 18.7 13.1 20.8 12.25 22.3 Q11.5 22.95 10.25 23.15 L7.05 23.25 1.3 23.25 4.9 1.15 10.6 1.15 14.6 1.55 Q15.9 2.05 15.9 3.6 L15.65 5.7" fill="#1d1d1c" fill-rule="evenodd" stroke="none"/>
      <path d="M28.2 1.6 Q29.45 2.1 29.45 3.6 L29.2 5.75 28.9 8.05 28.1 10.9 Q27.45 11.95 25.85 12.45 26.8 12.75 27.25 13.3 27.65 13.8 27.65 14.75 L27.55 16.1 26.4 23.25 21.45 23.25 22.65 15.65 22.7 15.15 Q22.7 14.5 21.65 14.5 L21.3 14.5 19.85 23.25 14.9 23.25 18.45 1.15 24.2 1.15 28.2 1.6 M22.85 4.75 L22.0 10.4 22.45 10.4 23.45 10.1 23.75 8.95 24.3 5.35 Q24.3 4.95 24.1 4.85 L23.3 4.75 22.85 4.75" fill="#1d1d1c" fill-rule="evenodd" stroke="none"/>
      <path d="M37.0 1.15 L33.5 23.25 28.5 23.25 32.05 1.15 37.0 1.15" fill="#1d1d1c" fill-rule="evenodd" stroke="none"/>
      <path d="M43.85 1.15 L44.4 12.45 44.6 12.45 46.45 1.15 50.75 1.15 47.15 23.25 42.55 23.25 41.9 12.45 41.7 12.45 39.95 23.25 35.65 23.25 39.25 1.15 43.85 1.15" fill="#1d1d1c" fill-rule="evenodd" stroke="none"/>
      <path d="M57.7 1.15 L56.25 10.0 56.5 10.0 59.65 1.15 64.6 1.15 60.4 11.1 61.65 23.25 56.65 23.25 56.05 12.65 55.85 12.65 54.15 23.25 49.4 23.25 52.95 1.15 57.7 1.15" fill="#1d1d1c" fill-rule="evenodd" stroke="none"/>
      <path d="M8.0 3.55 L5.55 18.55 6.05 18.55 Q6.8 18.55 7.05 18.25 L7.35 17.2 9.45 4.2 9.2 3.65 8.45 3.5 8.0 3.55 M14.35 4.55 L12.25 17.55 11.8 19.65 Q11.55 20.55 10.95 21.1 10.25 21.75 8.95 21.95 L5.8 22.1 0.0 22.1 3.6 0.0 9.35 0.0 13.3 0.4 Q14.6 0.85 14.6 2.45 L14.35 4.55" fill="#ffffff" fill-rule="evenodd" stroke="none"/>
      <path d="M23.0 4.2 L22.8 3.7 22.0 3.6 21.6 3.6 20.65 9.2 21.15 9.25 22.15 8.95 22.45 7.8 22.9 5.05 23.0 4.2 M22.9 0.0 L26.9 0.45 Q28.2 0.95 28.2 2.45 L27.9 4.6 27.55 6.85 Q27.25 9.0 26.8 9.7 26.2 10.8 24.55 11.3 25.55 11.6 25.95 12.15 26.4 12.65 26.4 13.6 L25.1 22.1 20.15 22.1 21.35 14.5 21.4 14.0 Q21.4 13.3 20.35 13.3 L20.0 13.3 18.55 22.1 13.6 22.1 17.2 0.0 22.9 0.0" fill="#ffffff" fill-rule="evenodd" stroke="none"/>
      <path d="M35.75 0.0 L32.15 22.1 27.2 22.1 30.75 0.0 35.75 0.0" fill="#ffffff" fill-rule="evenodd" stroke="none"/>
      <path d="M49.4 0.0 L45.9 22.1 41.25 22.1 40.6 11.25 40.4 11.25 38.7 22.1 34.4 22.1 37.9 0.0 42.6 0.0 43.1 11.3 43.35 11.3 45.15 0.0 49.4 0.0" fill="#ffffff" fill-rule="evenodd" stroke="none"/>
      <path d="M56.4 0.0 L55.0 8.85 55.15 8.85 58.4 0.0 63.35 0.0 59.1 9.95 60.35 22.1 55.35 22.1 54.75 11.5 54.55 11.5 52.85 22.1 48.1 22.1 51.65 0.0 56.4 0.0" fill="#ffffff" fill-rule="evenodd" stroke="none"/>
    </g>
  </defs>
</svg>
