<svg xmlns:xlink="http://www.w3.org/1999/xlink" height="23.25" width="64.6" xmlns="http://www.w3.org/2000/svg"><use height="23.25" width="64.6" xlink:href="#a"/><defs><g id="a" fill-rule="evenodd"><path d="M9.3 4.7l-2.45 15h.5q.8 0 1-.3l.3-1L10.6 6.1l.1-.75q0-.7-.95-.7l-.45.05m6.35 1l-2.1 13-.45 2.1-.85 1.5q-.75.65-2 .85l-3.2.1H1.3l3.6-22.1h5.7l4 .4q1.3.5 1.3 2.05l-.25 2.1M28.2 1.6q1.25.5 1.25 2l-.25 2.15-.3 2.3-.8 2.85q-.65 1.05-2.25 1.55.95.3 1.4.85.4.5.4 1.45l-.1 1.35-1.15 7.15h-4.95l1.2-7.6.05-.5q0-.65-1.05-.65h-.35l-1.45 8.75H14.9l3.55-22.1h5.75l4 .45m-5.35 3.15L22 10.4h.45l1-.3.3-1.15.55-3.6q0-.4-.2-.5l-.8-.1h-.45M37 1.15l-3.5 22.1h-5l3.55-22.1H37M43.85 1.15l.55 11.3h.2l1.85-11.3h4.3l-3.6 22.1h-4.6l-.65-10.8h-.2l-1.75 10.8h-4.3l3.6-22.1h4.6M57.7 1.15L56.25 10h.25l3.15-8.85h4.95l-4.2 9.95 1.25 12.15h-5l-.6-10.6h-.2l-1.7 10.6H49.4l3.55-22.1h4.75" fill="#1d1d1c"/><path d="M8 3.55l-2.45 15h.5q.75 0 1-.3l.3-1.05 2.1-13-.25-.55-.75-.15-.45.05m6.35 1l-2.1 13-.45 2.1q-.25.9-.85 1.45-.7.65-2 .85l-3.15.15H0L3.6 0h5.75l3.95.4q1.3.45 1.3 2.05l-.25 2.1M23 4.2l-.2-.5-.8-.1h-.4l-.95 5.6.5.05 1-.3.3-1.15.45-2.75.1-.85M22.9 0l4 .45q1.3.5 1.3 2l-.3 2.15-.35 2.25Q27.25 9 26.8 9.7q-.6 1.1-2.25 1.6 1 .3 1.4.85.45.5.45 1.45l-1.3 8.5h-4.95l1.2-7.6.05-.5q0-.7-1.05-.7H20l-1.45 8.8H13.6L17.2 0h5.7M35.75 0l-3.6 22.1H27.2L30.75 0h5M49.4 0l-3.5 22.1h-4.65l-.65-10.85h-.2L38.7 22.1h-4.3L37.9 0h4.7l.5 11.3h.25L45.15 0h4.25M56.4 0L55 8.85h.15L58.4 0h4.95L59.1 9.95l1.25 12.15h-5l-.6-10.6h-.2l-1.7 10.6H48.1L51.65 0h4.75" fill="#fff"/></g></defs></svg>