<?xml version="1.0" encoding="UTF-8" standalone="no"?>
<svg xmlns:xlink="http://www.w3.org/1999/xlink" height="37.9px" width="107.05px" xmlns="http://www.w3.org/2000/svg">
  <g transform="matrix(1, 0, 0, 1, 0.0, 0.0)">
    <use height="37.9" transform="matrix(1.0, 0.0, 0.0, 1.0, 0.0, 0.0)" width="107.05" xlink:href="#shape0"/>
  </g>
  <defs>
    <g id="shape0" transform="matrix(1, 0, 0, 1, 0.0, 0.0)">
      <path d="M13.5 7.55 L11.65 19.8 12.4 19.85 Q13.5 19.85 13.9 19.3 L14.35 17.5 15.65 8.55 Q15.65 7.95 15.3 7.7 L14.15 7.55 13.5 7.55 M23.4 5.8 L23.05 9.15 21.7 18.15 Q21.05 23.0 19.4 24.25 17.65 25.6 11.95 25.6 L10.8 25.6 9.0 37.65 1.5 37.65 6.9 1.75 15.5 1.75 Q19.9 1.75 21.5 2.45 23.4 3.25 23.4 5.8" fill="#1d1d1c" fill-rule="evenodd" stroke="none"/>
      <path d="M33.8 7.9 Q33.55 8.25 33.45 9.15 L30.3 30.15 30.25 30.95 Q30.25 31.95 31.25 31.95 31.9 31.95 32.25 31.5 L32.65 30.15 35.85 8.45 Q35.85 7.4 34.75 7.4 34.1 7.4 33.8 7.9 M35.8 1.55 L41.7 2.1 Q43.65 2.9 43.65 5.4 L43.3 8.95 40.05 30.4 39.45 33.85 Q39.0 35.4 38.1 36.3 37.1 37.3 35.15 37.65 L30.35 37.9 24.5 37.35 Q22.5 36.55 22.5 34.35 22.5 32.6 22.85 30.4 L26.0 8.95 Q26.35 6.5 26.65 5.55 27.05 4.05 27.9 3.2 28.95 2.05 30.95 1.75 L35.8 1.55" fill="#1d1d1c" fill-rule="evenodd" stroke="none"/>
      <path d="M52.55 1.75 L50.75 24.35 51.1 24.35 56.4 1.75 63.15 1.75 61.7 24.35 62.0 24.35 67.05 1.75 74.1 1.75 64.25 37.65 56.3 37.65 57.8 16.05 57.5 16.05 52.6 37.65 44.55 37.65 45.45 1.75 52.55 1.75" fill="#1d1d1c" fill-rule="evenodd" stroke="none"/>
      <path d="M87.45 1.75 L86.55 7.55 82.05 7.55 80.95 15.05 85.45 15.05 84.55 20.85 80.1 20.85 78.45 31.8 82.95 31.8 82.1 37.65 70.1 37.65 75.45 1.75 87.45 1.75" fill="#1d1d1c" fill-rule="evenodd" stroke="none"/>
      <path d="M107.05 5.8 L106.7 9.15 106.15 12.9 Q105.65 16.3 105.0 17.55 104.05 19.3 101.6 20.15 103.1 20.6 103.75 21.45 104.35 22.3 104.35 23.8 L104.2 26.0 102.45 37.65 95.0 37.65 96.85 25.3 96.9 24.55 Q96.9 23.4 95.3 23.4 L94.8 23.4 92.65 37.65 85.2 37.65 90.55 1.75 99.15 1.75 Q103.6 1.75 105.15 2.45 107.05 3.25 107.05 5.8 M97.15 7.55 L95.8 16.75 96.55 16.8 Q97.65 16.8 98.0 16.25 L98.5 14.4 99.3 8.55 Q99.3 7.95 98.95 7.7 L97.75 7.55 97.15 7.55" fill="#1d1d1c" fill-rule="evenodd" stroke="none"/>
      <path d="M12.0 6.0 L10.1 18.3 10.9 18.3 Q12.0 18.3 12.35 17.8 L12.85 15.95 14.15 7.0 Q14.15 6.4 13.8 6.15 L12.6 6.0 12.0 6.0 M21.55 7.65 L20.2 16.65 Q19.5 21.45 17.85 22.75 16.15 24.05 10.4 24.05 L9.25 24.05 7.45 36.1 0.0 36.1 5.35 0.25 13.95 0.25 Q18.4 0.25 19.95 0.9 21.9 1.75 21.9 4.25 L21.55 7.65" fill="#ffffff" fill-rule="evenodd" stroke="none"/>
      <path d="M33.2 5.85 Q32.55 5.85 32.25 6.35 L31.9 7.65 28.8 28.65 28.75 29.4 Q28.75 30.45 29.7 30.45 30.4 30.45 30.7 30.0 L31.1 28.65 34.35 6.95 Q34.35 5.85 33.2 5.85 M25.1 4.05 Q25.5 2.5 26.35 1.65 27.4 0.55 29.45 0.25 L34.25 0.0 40.15 0.6 Q42.1 1.35 42.1 3.85 L41.75 7.45 38.5 28.85 37.9 32.3 Q37.5 33.9 36.55 34.75 35.55 35.75 33.6 36.1 L28.8 36.4 22.95 35.8 Q20.95 35.05 20.95 32.8 20.95 31.05 21.3 28.85 L24.5 7.45 Q24.85 5.0 25.1 4.05" fill="#ffffff" fill-rule="evenodd" stroke="none"/>
      <path d="M51.0 0.25 L49.2 22.8 49.55 22.8 54.9 0.25 61.65 0.25 60.15 22.8 60.5 22.8 65.55 0.25 72.55 0.25 62.7 36.1 54.75 36.1 56.25 14.55 55.95 14.55 51.05 36.1 43.05 36.1 43.9 0.25 51.0 0.25" fill="#ffffff" fill-rule="evenodd" stroke="none"/>
      <path d="M85.9 0.25 L85.0 6.0 80.55 6.0 79.4 13.5 83.95 13.5 83.0 19.3 78.55 19.3 76.9 30.3 81.4 30.3 80.55 36.1 68.55 36.1 73.95 0.25 85.9 0.25" fill="#ffffff" fill-rule="evenodd" stroke="none"/>
      <path d="M105.15 7.65 L104.65 11.35 Q104.15 14.75 103.5 16.0 102.55 17.8 100.05 18.6 101.55 19.1 102.2 19.95 102.85 20.8 102.85 22.25 L102.65 24.45 100.9 36.1 93.45 36.1 95.3 23.75 95.35 23.0 Q95.35 21.9 93.8 21.9 L93.25 21.9 91.1 36.1 83.65 36.1 89.0 0.25 97.6 0.25 Q102.05 0.25 103.6 0.9 105.5 1.75 105.5 4.25 L105.15 7.65 M95.65 6.0 L94.25 15.2 95.0 15.25 Q96.15 15.25 96.45 14.7 L96.95 12.9 97.75 7.0 Q97.75 6.4 97.45 6.15 L96.25 6.0 95.65 6.0" fill="#ffffff" fill-rule="evenodd" stroke="none"/>
    </g>
  </defs>
</svg>
