<svg xmlns:xlink="http://www.w3.org/1999/xlink" height="37.9" width="107.05" xmlns="http://www.w3.org/2000/svg"><use height="37.9" width="107.05" xlink:href="#a"/><defs><g id="a" fill-rule="evenodd"><path d="M13.5 7.55L11.65 19.8l.75.05q1.1 0 1.5-.55l.45-1.8 1.3-8.95q0-.6-.35-.85l-1.15-.15h-.65m9.9-1.75l-.35 3.35-1.35 9q-.65 4.85-2.3 6.1-1.75 1.35-7.45 1.35H10.8L9 37.65H1.5l5.4-35.9h8.6q4.4 0 6 .7 1.9.8 1.9 3.35M33.8 7.9q-.25.35-.35 1.25l-3.15 21-.05.8q0 1 1 1 .65 0 1-.45l.4-1.35 3.2-21.7q0-1.05-1.1-1.05-.65 0-.95.5m2-6.35l5.9.55q1.95.8 1.95 3.3l-.35 3.55-3.25 21.45-.6 3.45Q39 35.4 38.1 36.3q-1 1-2.95 1.35l-4.8.25-5.85-.55q-2-.8-2-3 0-1.75.35-3.95L26 8.95q.35-2.45.65-3.4.4-1.5 1.25-2.35 1.05-1.15 3.05-1.45l4.85-.2M52.55 1.75l-1.8 22.6h.35l5.3-22.6h6.75l-1.45 22.6h.3l5.05-22.6h7.05l-9.85 35.9H56.3l1.5-21.6h-.3l-4.9 21.6h-8.05l.9-35.9h7.1M87.45 1.75l-.9 5.8h-4.5l-1.1 7.5h4.5l-.9 5.8H80.1L78.45 31.8h4.5l-.85 5.85h-12l5.35-35.9h12M107.05 5.8l-.35 3.35-.55 3.75q-.5 3.4-1.15 4.65-.95 1.75-3.4 2.6 1.5.45 2.15 1.3.6.85.6 2.35l-.15 2.2-1.75 11.65H95l1.85-12.35.05-.75q0-1.15-1.6-1.15h-.5l-2.15 14.25H85.2l5.35-35.9h8.6q4.45 0 6 .7 1.9.8 1.9 3.35m-9.9 1.75l-1.35 9.2.75.05q1.1 0 1.45-.55l.5-1.85.8-5.85q0-.6-.35-.85l-1.2-.15h-.6" fill="#1d1d1c"/><path d="M12 6l-1.9 12.3h.8q1.1 0 1.45-.5l.5-1.85L14.15 7q0-.6-.35-.85L12.6 6H12m9.55 1.65l-1.35 9q-.7 4.8-2.35 6.1-1.7 1.3-7.45 1.3H9.25L7.45 36.1H0L5.35.25h8.6q4.45 0 6 .65 1.95.85 1.95 3.35l-.35 3.4M33.2 5.85q-.65 0-.95.5l-.35 1.3-3.1 21-.05.75q0 1.05.95 1.05.7 0 1-.45l.4-1.35 3.25-21.7q0-1.1-1.15-1.1m-8.1-1.8q.4-1.55 1.25-2.4 1.05-1.1 3.1-1.4l4.8-.25 5.9.6q1.95.75 1.95 3.25l-.35 3.6-3.25 21.4-.6 3.45q-.4 1.6-1.35 2.45-1 1-2.95 1.35l-4.8.3-5.85-.6q-2-.75-2-3 0-1.75.35-3.95l3.2-21.4q.35-2.45.6-3.4M51 .25L49.2 22.8h.35L54.9.25h6.75l-1.5 22.55h.35L65.55.25h7L62.7 36.1h-7.95l1.5-21.55h-.3l-4.9 21.55h-8L43.9.25H51M85.9.25L85 6h-4.45l-1.15 7.5h4.55L83 19.3h-4.45l-1.65 11h4.5l-.85 5.8h-12L73.95.25H85.9M105.15 7.65l-.5 3.7q-.5 3.4-1.15 4.65-.95 1.8-3.45 2.6 1.5.5 2.15 1.35.65.85.65 2.3l-.2 2.2-1.75 11.65h-7.45l1.85-12.35.05-.75q0-1.1-1.55-1.1h-.55L91.1 36.1h-7.45L89 .25h8.6q4.45 0 6 .65 1.9.85 1.9 3.35l-.35 3.4M95.65 6l-1.4 9.2.75.05q1.15 0 1.45-.55l.5-1.8.8-5.9q0-.6-.3-.85L96.25 6h-.6" fill="#fff"/></g></defs></svg>