<?xml version="1.0" encoding="UTF-8" standalone="no"?>
<svg xmlns:xlink="http://www.w3.org/1999/xlink" height="229.2px" width="273.75px" xmlns="http://www.w3.org/2000/svg">
  <g transform="matrix(1, 0, 0, 1, 61.2, 0.0)">
    <use height="173.75" transform="matrix(1.0, 0.0, 0.0, 1.0, 3.35, 1.4)" width="118.05" xlink:href="#sprite0"/>
    <use height="173.7" transform="matrix(1.0, 0.0, 0.0, 1.0, 0.0, 0.0)" width="118.1" xlink:href="#sprite1"/>
  </g>
  <defs>
    <g id="sprite0" transform="matrix(1, 0, 0, 1, -2.5, -1.4)">
      <use height="173.75" transform="matrix(1.0, 0.0, 0.0, 1.0, 2.5, 1.4)" width="118.05" xlink:href="#shape1"/>
    </g>
    <g id="shape1" transform="matrix(1, 0, 0, 1, -2.5, -1.4)">
      <path d="M104.05 8.95 L103.55 10.55 Q103.35 11.55 102.95 12.0 L102.45 12.25 101.9 12.5 Q101.6 12.75 101.4 13.45 L101.1 14.55 100.6 15.15 100.05 15.65 Q99.45 16.4 98.95 17.95 L98.75 19.65 97.6 20.45 Q97.3 20.9 97.1 21.8 L96.65 23.15 96.1 23.75 Q95.65 24.05 95.55 24.3 L95.35 25.2 95.15 25.95 94.5 26.45 Q92.95 28.5 92.5 29.5 L92.3 31.15 91.8 31.75 91.25 32.3 91.05 33.85 89.9 35.0 89.35 36.5 88.8 36.9 88.25 37.25 88.1 38.2 86.55 40.45 85.45 41.3 85.3 41.95 84.55 42.7 84.5 43.35 84.15 43.65 83.75 43.95 82.8 46.0 82.65 47.4 81.7 48.3 81.3 49.45 80.35 50.7 80.2 51.5 79.3 52.55 78.35 53.65 Q78.15 53.95 78.05 54.8 L77.75 55.95 76.75 56.8 76.3 57.85 75.65 58.4 75.0 58.95 74.45 60.2 74.05 61.5 73.15 62.8 72.3 64.05 71.2 66.85 71.1 67.6 70.9 68.25 69.35 69.4 69.15 70.9 68.4 71.7 67.7 72.45 67.4 73.6 67.1 74.75 66.5 75.6 65.8 76.4 64.7 79.6 Q64.6 80.0 64.8 80.55 L65.05 81.65 65.45 81.65 Q65.8 81.1 66.7 80.55 L67.9 79.55 Q69.3 77.75 72.4 75.35 L73.2 74.25 Q73.45 74.05 74.05 73.85 L74.9 73.5 76.05 72.45 77.15 71.35 78.0 71.05 78.85 70.65 79.8 69.65 80.95 69.25 81.2 68.75 81.5 68.25 82.55 67.85 83.6 67.4 83.8 66.8 84.1 66.25 85.1 66.0 86.1 65.8 87.1 64.8 88.15 64.65 90.0 63.45 Q90.7 63.0 91.9 62.65 L94.05 62.1 95.15 61.55 96.25 61.0 99.3 60.75 102.7 60.9 104.15 60.8 105.55 60.85 108.15 60.75 Q109.95 61.35 111.5 62.4 L114.25 64.5 Q115.35 65.45 116.55 65.75 116.85 65.35 117.7 66.0 L118.95 66.95 119.8 68.1 120.45 69.4 Q120.7 70.25 120.35 71.2 L119.75 72.5 Q119.0 73.95 116.9 75.25 L113.2 77.1 110.3 78.85 Q108.55 79.85 106.65 79.8 L105.55 78.65 Q105.05 77.95 105.05 76.95 105.75 76.3 105.85 75.8 L106.5 75.15 Q106.7 74.8 105.65 74.6 104.1 72.7 104.15 72.4 103.4 72.2 102.6 71.35 101.8 70.55 101.05 70.4 100.35 70.2 99.7 70.85 L98.75 71.75 97.3 72.2 Q95.5 73.35 93.75 73.7 93.5 74.8 92.85 75.05 L91.15 75.55 89.55 76.8 89.05 77.8 88.45 78.75 87.75 79.0 86.95 79.2 85.95 79.8 85.1 80.45 84.15 80.7 Q83.8 80.9 83.55 81.6 L83.1 82.7 82.0 83.7 Q81.15 84.2 80.85 84.6 L80.2 85.65 79.5 86.75 78.85 87.05 78.2 87.35 77.95 88.0 77.75 88.6 77.1 89.25 76.9 89.95 76.7 90.8 76.3 91.5 75.9 92.2 Q75.75 92.7 75.95 93.55 L76.25 94.8 Q76.85 95.0 77.1 95.6 L77.75 96.65 Q78.5 97.2 80.05 97.45 L82.6 97.75 84.0 97.65 84.5 98.05 84.95 98.45 86.3 98.3 88.05 98.15 88.65 98.65 89.8 98.7 91.65 99.2 93.7 99.3 95.25 99.1 96.8 99.35 98.35 99.45 101.05 99.15 104.05 99.3 104.65 99.8 107.0 100.4 108.65 100.45 109.1 100.7 109.55 100.95 111.35 101.0 111.85 101.45 113.4 101.9 Q114.3 102.15 114.8 102.5 L115.8 103.7 116.95 104.2 Q117.35 104.7 117.55 105.9 119.35 110.5 118.8 112.25 L118.2 114.15 Q117.85 115.3 117.8 116.35 L118.3 116.65 118.6 117.05 Q118.6 118.9 118.3 119.35 L114.45 123.35 113.55 123.95 Q113.4 124.25 113.4 124.8 L113.2 125.5 Q112.8 126.1 111.6 126.8 L109.65 127.85 109.0 128.85 107.8 129.55 106.5 130.25 105.65 131.15 104.8 132.0 104.15 132.25 103.5 132.5 102.9 133.1 102.2 133.6 101.25 133.85 Q100.65 133.95 100.4 134.1 L99.45 134.95 98.55 135.1 98.0 135.7 96.8 136.1 95.5 136.4 94.5 137.25 93.45 138.05 91.6 138.55 Q91.25 138.75 90.8 139.65 L89.9 140.7 88.5 140.9 86.9 141.0 86.35 141.45 85.85 141.85 84.8 142.05 83.8 142.2 81.3 143.15 80.15 143.3 78.75 144.25 77.1 145.3 75.7 145.35 Q74.6 146.05 73.95 146.2 L71.2 146.75 68.4 147.25 66.75 147.2 65.25 147.8 61.4 147.6 57.55 147.4 53.15 146.4 52.3 145.05 Q52.3 144.2 52.55 143.5 L53.0 142.15 54.2 141.35 55.25 140.5 56.3 140.15 56.6 139.7 56.95 139.25 58.25 138.9 59.0 138.2 Q59.45 137.75 59.85 137.65 L62.5 137.4 65.15 137.1 65.7 136.75 66.2 136.25 67.05 135.95 67.9 135.65 68.55 135.15 Q68.95 134.75 69.2 134.65 L70.15 134.55 72.1 133.15 73.85 132.55 75.6 132.0 76.3 131.3 76.9 130.45 77.55 130.0 77.9 129.35 77.6 129.3 76.45 129.2 75.3 129.15 72.85 127.15 72.55 126.25 72.3 125.3 Q71.65 124.75 71.5 124.4 L71.3 123.5 71.05 122.7 69.55 121.15 69.4 120.0 69.1 119.3 68.7 118.65 68.4 118.65 Q68.4 120.05 67.75 120.45 66.65 121.15 65.75 119.95 L64.6 117.95 63.15 116.6 62.95 115.9 62.8 115.05 62.45 114.6 62.1 114.15 61.75 112.95 61.35 111.8 60.35 110.3 59.35 108.8 59.2 108.15 59.0 107.5 58.05 106.2 57.1 104.75 56.7 103.1 56.15 101.5 55.2 100.35 54.05 99.3 53.4 98.45 52.5 97.8 51.95 98.6 51.85 99.55 51.65 100.4 50.75 101.2 49.8 102.0 49.8 102.4 49.35 102.9 48.85 103.55 48.75 104.7 48.2 105.05 47.8 105.9 47.35 106.7 46.65 107.6 45.9 108.5 45.8 109.4 45.2 109.85 44.55 110.25 44.3 110.95 44.05 111.65 42.85 113.1 41.65 114.55 Q41.3 115.1 40.85 116.35 L40.0 118.15 39.1 118.85 39.0 119.3 38.8 119.65 37.9 120.4 37.7 121.2 37.5 121.95 36.55 122.8 36.3 123.85 36.0 124.75 34.7 125.85 34.25 126.75 33.85 127.75 32.4 129.75 Q31.45 131.0 31.05 131.8 L31.05 132.45 29.95 134.5 28.9 135.9 Q28.15 136.75 27.95 137.25 L27.8 138.4 27.15 138.95 Q26.6 139.25 26.5 139.45 26.2 139.8 26.0 140.7 L25.5 142.0 24.6 142.85 23.2 145.95 22.3 146.8 22.1 148.25 20.9 149.35 20.6 150.45 20.25 151.5 18.35 154.55 18.05 155.3 17.7 156.1 16.9 156.7 15.8 158.95 14.7 161.2 13.9 162.05 13.15 162.95 13.0 163.55 12.2 164.2 12.05 164.7 11.9 165.1 11.55 165.2 11.15 165.3 Q10.9 165.55 10.6 166.45 L9.6 167.2 Q8.9 167.6 8.75 167.95 8.35 168.6 8.1 169.65 L7.5 171.4 6.45 173.05 6.05 174.1 5.35 174.85 3.0 174.95 2.8 174.5 Q2.3 173.85 2.9 171.7 L3.85 168.75 3.1 168.6 Q2.8 168.45 2.7 168.1 2.2 167.5 2.85 165.65 L3.95 163.35 4.15 162.65 4.35 161.85 4.9 161.05 5.45 160.2 5.65 159.2 Q5.7 158.6 5.9 158.25 L8.45 154.05 8.75 152.9 9.65 151.65 10.25 149.9 11.15 148.45 11.95 146.95 12.15 146.15 12.35 145.4 13.65 143.55 14.8 141.6 15.55 139.75 16.45 138.05 Q18.55 135.25 19.25 133.85 L20.05 131.9 Q20.55 130.65 21.0 130.0 L22.6 128.05 23.55 126.0 24.2 125.5 24.45 124.75 24.65 124.1 27.1 120.0 29.6 115.95 30.3 114.05 32.05 111.6 32.6 109.95 33.75 108.8 34.35 107.55 34.9 106.3 36.6 104.15 36.85 103.3 37.15 102.5 38.6 100.3 Q39.5 98.9 39.7 97.8 39.2 97.45 39.0 96.6 38.8 95.65 39.3 95.05 L40.4 93.3 41.65 91.65 43.0 89.1 44.4 86.55 Q44.7 86.1 45.95 85.7 47.15 85.3 47.25 85.1 L47.5 84.8 47.65 84.45 47.7 84.05 47.3 83.7 47.45 81.7 46.35 79.9 46.1 78.35 45.4 77.2 44.6 76.0 44.25 74.9 43.9 73.65 43.55 73.4 43.25 72.65 42.9 71.85 41.5 70.7 41.3 69.5 40.75 68.75 40.15 67.9 39.6 66.1 38.95 64.45 38.2 63.5 37.45 62.6 37.1 61.3 36.7 60.0 35.85 59.05 35.65 58.45 35.5 57.75 34.95 56.9 34.4 55.95 33.05 52.7 32.25 51.5 31.55 50.2 30.95 48.55 30.45 47.9 Q30.35 47.65 30.4 47.05 L30.2 46.3 29.8 46.2 29.1 45.0 28.7 43.85 28.1 42.9 28.0 42.0 27.2 40.9 26.5 39.65 26.25 38.35 25.5 37.35 25.5 36.8 24.9 36.5 24.35 36.05 Q24.2 35.4 24.6 34.6 25.0 33.9 25.45 33.75 26.0 33.3 27.3 33.25 L29.35 33.3 Q29.45 32.15 29.95 32.05 L31.3 31.8 31.7 31.3 Q32.85 30.6 34.45 30.6 L35.6 30.4 36.65 30.5 37.4 31.1 38.15 31.7 39.0 31.8 39.95 31.9 40.6 32.55 41.1 33.3 41.65 33.6 42.25 33.85 42.25 34.0 42.6 34.75 44.25 36.2 44.75 37.95 Q45.0 39.25 45.2 39.6 L45.9 40.05 Q46.45 40.3 46.6 40.5 L46.8 41.15 47.0 41.8 47.7 42.75 48.35 43.65 48.85 44.95 49.35 46.25 50.95 48.7 51.3 50.2 51.8 50.8 52.3 51.5 52.3 52.25 52.65 52.85 53.05 53.45 53.1 54.2 54.1 55.95 55.1 57.6 55.65 59.0 56.05 60.45 56.65 61.35 Q57.05 61.9 57.05 62.4 L56.8 64.1 57.55 64.85 Q57.85 65.35 58.55 65.4 L59.0 64.95 59.35 64.25 Q58.2 63.65 58.9 61.85 59.2 61.0 60.25 59.5 63.95 54.2 67.95 45.8 68.45 44.65 70.2 42.35 L70.55 41.45 70.9 40.45 71.45 39.8 72.0 39.05 72.15 38.35 72.25 37.65 72.65 37.3 73.05 37.05 73.3 36.0 74.15 35.0 74.3 34.3 Q74.3 33.85 74.45 33.6 74.6 33.1 75.3 32.15 L76.15 30.8 76.6 29.0 77.25 28.35 77.85 26.85 78.5 25.3 Q79.25 24.05 81.7 21.4 L82.2 20.05 82.5 18.6 83.45 17.4 84.4 16.2 84.55 14.9 84.95 14.4 85.35 13.9 85.7 12.75 86.15 11.75 86.8 11.35 87.25 9.95 89.15 6.75 Q90.35 4.9 91.65 4.15 L92.9 4.0 94.25 3.9 94.85 3.35 95.55 2.8 96.35 2.7 97.25 2.55 98.0 2.1 98.8 1.6 102.2 1.5 105.4 2.0 106.0 2.9 Q106.0 4.85 105.35 6.3 L104.05 8.95 M99.6 108.6 L98.1 108.45 97.35 107.65 94.8 107.35 93.1 106.75 92.75 106.35 91.25 106.55 89.75 106.8 89.1 106.4 Q88.65 106.05 88.5 106.05 L84.5 106.05 83.4 105.55 82.05 105.5 81.25 106.1 78.2 106.6 74.65 106.6 Q74.7 107.2 75.1 107.9 L75.75 109.05 75.8 111.5 76.3 112.35 76.8 113.2 76.9 114.5 77.7 115.25 78.35 116.75 78.9 118.4 79.6 119.6 80.25 120.9 80.2 121.9 80.7 122.8 80.7 123.6 81.1 124.05 81.5 124.5 81.6 126.3 Q81.55 127.35 81.9 127.85 L82.65 128.05 Q83.15 127.55 84.05 127.2 L85.55 126.4 86.35 125.65 87.65 125.3 88.45 124.4 Q88.95 123.85 89.5 123.65 L90.65 123.6 91.1 123.2 91.55 122.8 92.75 122.45 93.35 121.75 93.85 120.95 Q94.1 120.65 94.6 120.45 L95.5 120.05 96.6 118.8 Q99.2 117.2 100.6 115.7 102.6 113.5 103.0 110.85 L100.95 108.85 99.6 108.6" fill="#1d1d1c" fill-rule="evenodd" stroke="none"/>
    </g>
    <g id="sprite1" transform="matrix(1, 0, 0, 1, 0.0, 0.0)">
      <use height="173.7" transform="matrix(1.0, 0.0, 0.0, 1.0, 0.0, 0.0)" width="118.1" xlink:href="#shape2"/>
    </g>
    <g id="shape2" transform="matrix(1, 0, 0, 1, 0.0, 0.0)">
      <path d="M101.55 7.5 L101.1 9.1 100.5 10.6 99.95 10.85 99.45 11.1 Q99.15 11.35 98.95 12.05 L98.6 13.1 98.1 13.7 Q97.65 14.1 97.55 14.2 96.95 15.1 96.45 16.5 L96.3 18.2 95.15 19.05 94.6 20.4 94.15 21.75 93.6 22.3 93.1 22.9 92.9 23.75 92.7 24.55 92.0 25.05 Q90.45 27.1 90.0 28.1 L89.8 29.8 89.3 30.35 Q88.85 30.65 88.75 30.9 L88.6 32.45 87.45 33.6 86.85 35.1 86.3 35.45 85.8 35.85 85.65 36.75 84.05 39.0 83.0 39.9 82.85 40.55 82.05 41.3 82.05 41.95 81.7 42.3 81.25 42.55 Q80.7 43.35 80.3 44.6 L80.15 46.0 79.2 46.9 78.8 48.05 78.35 48.65 77.9 49.3 77.75 50.05 76.8 51.15 75.85 52.25 75.6 53.4 75.3 54.5 74.25 55.4 73.8 56.4 73.15 57.0 Q72.65 57.35 72.5 57.55 72.2 57.95 72.0 58.75 L71.55 60.1 70.7 61.35 69.8 62.65 68.7 65.45 68.6 66.2 68.4 66.85 66.85 67.95 66.7 69.5 65.95 70.3 65.25 71.05 64.95 72.2 64.65 73.35 63.3 75.0 62.2 78.15 Q62.1 78.6 62.3 79.15 L62.55 80.25 62.95 80.25 Q63.3 79.7 64.2 79.1 L65.45 78.1 Q66.95 76.2 69.95 73.95 L70.75 72.85 71.55 72.45 72.45 72.1 73.55 71.05 74.65 69.95 Q74.95 69.8 75.55 69.6 L76.4 69.25 77.3 68.25 78.45 67.85 78.75 67.35 79.0 66.85 Q79.25 66.65 80.05 66.45 80.85 66.3 81.1 65.95 L81.35 65.4 81.65 64.8 82.65 64.65 83.6 64.4 84.65 63.35 85.65 63.25 87.55 62.0 Q88.25 61.55 89.45 61.25 L91.55 60.7 92.7 60.2 93.8 59.6 96.85 59.35 100.25 59.5 101.65 59.4 103.05 59.4 105.65 59.35 Q107.45 59.9 109.0 61.0 L111.75 63.15 Q113.05 64.05 114.05 64.3 114.35 63.95 115.2 64.6 L116.5 65.55 117.35 66.75 118.0 68.05 Q118.2 68.85 117.9 69.8 L117.3 71.1 Q116.55 72.5 114.4 73.85 L110.7 75.7 107.8 77.45 Q106.05 78.45 104.2 78.4 L103.1 77.25 Q102.55 76.55 102.55 75.5 103.25 74.9 103.35 74.35 L104.0 73.75 Q104.2 73.4 103.2 73.2 101.6 71.3 101.65 71.0 L100.1 69.95 Q99.3 69.15 98.6 69.0 97.85 68.85 97.2 69.4 L96.25 70.35 94.85 70.8 Q92.95 71.95 91.3 72.3 91.05 73.35 90.4 73.65 L88.65 74.15 87.1 75.4 Q86.85 75.65 86.55 76.4 L86.0 77.3 85.3 77.6 84.45 77.75 Q84.05 77.95 83.5 78.4 L82.6 79.05 81.7 79.25 Q81.35 79.5 81.1 80.2 L80.6 81.3 79.5 82.25 78.4 83.2 77.75 84.25 77.05 85.35 76.4 85.65 75.75 85.95 75.5 86.6 75.3 87.25 74.65 87.85 Q74.45 88.1 74.4 88.55 L74.25 89.4 73.8 90.1 73.4 90.75 73.45 92.1 73.75 93.4 Q74.4 93.55 74.65 94.2 L75.25 95.2 Q76.0 95.8 77.6 96.0 L80.15 96.35 81.55 96.25 82.05 96.65 82.45 97.05 83.85 96.85 85.55 96.75 85.85 97.0 86.2 97.25 87.35 97.3 Q90.2 98.1 91.2 97.9 L92.75 97.65 94.35 97.95 95.85 98.0 98.6 97.75 101.55 97.85 101.85 98.15 102.2 98.4 103.35 98.75 104.5 98.95 106.15 99.0 107.05 99.55 108.85 99.6 109.35 100.0 110.9 100.5 112.3 101.1 113.35 102.25 114.5 102.8 Q114.85 103.3 115.05 104.5 116.85 109.15 116.35 110.85 L115.75 112.75 Q115.35 113.9 115.35 114.95 L115.8 115.2 116.1 115.6 Q116.1 117.5 115.8 117.9 L111.95 121.95 111.05 122.55 Q110.9 122.8 110.9 123.4 L110.75 124.1 109.1 125.4 107.2 126.45 106.5 127.5 105.3 128.2 Q104.4 128.55 104.05 128.85 L103.2 129.7 102.35 130.6 101.7 130.85 101.05 131.1 Q100.85 131.2 100.4 131.65 L99.7 132.2 98.75 132.45 97.9 132.65 96.95 133.55 96.05 133.65 95.5 134.3 94.3 134.65 93.05 135.0 92.05 135.8 90.95 136.6 89.1 137.1 88.3 138.2 87.4 139.25 86.0 139.5 84.4 139.55 83.9 140.0 83.35 140.45 82.35 140.65 81.3 140.8 78.8 141.75 77.65 141.85 Q77.25 142.0 76.25 142.8 L74.6 143.85 73.2 143.95 71.5 144.8 68.7 145.4 65.9 145.8 64.25 145.8 62.8 146.4 58.95 146.2 55.1 145.95 50.7 144.95 49.8 143.65 Q49.8 142.8 50.1 142.05 L50.55 140.7 51.7 139.9 52.8 139.05 53.8 138.7 54.15 138.25 54.5 137.85 55.8 137.5 56.55 136.8 Q56.95 136.35 57.4 136.25 L60.0 136.0 62.65 135.7 63.2 135.3 63.75 134.85 Q64.05 134.65 64.55 134.55 L65.45 134.25 66.1 133.75 Q66.45 133.35 66.75 133.25 L67.65 133.15 69.6 131.75 71.35 131.15 73.15 130.55 73.85 129.85 74.45 129.0 75.05 128.6 75.4 127.9 75.1 127.85 74.0 127.8 72.8 127.7 70.4 125.75 70.1 124.85 69.8 123.95 69.4 123.45 69.05 123.0 68.85 122.1 68.55 121.3 67.05 119.75 66.95 118.55 66.25 117.25 65.95 117.25 Q65.95 118.6 65.25 119.05 64.15 119.8 63.25 118.55 L62.1 116.55 60.7 115.2 60.5 114.5 60.35 113.65 60.0 113.2 59.6 112.75 59.25 111.55 58.85 110.4 57.85 108.9 56.9 107.4 56.7 106.7 56.55 106.1 55.55 104.75 54.65 103.35 54.2 101.7 53.7 100.1 52.7 98.95 51.55 97.85 50.9 97.0 Q50.5 96.5 50.0 96.4 L49.75 96.8 49.5 97.15 49.4 98.15 49.2 98.95 48.25 99.8 47.35 100.6 47.35 100.95 46.85 101.5 46.4 102.1 46.25 103.25 45.7 103.65 Q45.55 103.9 45.35 104.5 L44.9 105.3 44.15 106.2 43.45 107.05 43.3 108.0 42.75 108.45 42.1 108.8 41.8 109.55 41.6 110.25 40.35 111.7 39.15 113.15 38.35 114.95 37.55 116.7 36.65 117.45 36.5 117.85 36.35 118.2 35.4 119.0 35.2 119.8 35.0 120.5 34.05 121.4 33.85 122.45 33.55 123.3 32.2 124.45 Q31.95 124.75 31.75 125.4 L31.4 126.35 29.9 128.35 Q28.95 129.6 28.55 130.4 L28.55 131.05 27.5 133.1 26.45 134.45 25.45 135.85 25.35 137.0 24.7 137.55 24.0 138.05 Q23.7 138.4 23.5 139.3 L23.05 140.55 22.1 141.45 20.75 144.5 19.8 145.4 19.65 146.75 18.45 147.9 18.1 149.05 17.8 150.1 15.9 153.15 15.55 153.9 15.2 154.65 14.4 155.3 Q14.0 155.95 13.35 157.55 L12.25 159.75 11.45 160.65 10.65 161.55 10.5 162.15 9.75 162.8 9.6 163.3 9.45 163.7 9.1 163.8 8.65 163.9 8.4 164.5 8.1 165.05 7.15 165.8 Q6.45 166.2 6.3 166.55 5.9 167.2 5.65 168.25 L5.05 170.0 3.95 171.65 3.55 172.7 2.85 173.4 0.55 173.55 0.3 173.1 Q-0.2 172.45 0.4 170.25 L1.35 167.35 0.65 167.15 0.2 166.65 Q-0.6 165.75 1.5 161.95 L1.7 161.2 1.9 160.4 2.45 159.6 3.0 158.75 3.15 157.75 Q3.2 157.15 3.4 156.85 L5.95 152.65 6.25 151.5 7.15 150.2 7.75 148.45 8.65 147.05 9.45 145.55 9.7 144.75 9.9 144.0 12.35 140.2 13.05 138.35 13.95 136.6 15.4 134.6 16.75 132.45 17.6 130.5 18.55 128.6 20.1 126.6 21.1 124.6 21.75 124.1 21.95 123.35 22.15 122.65 24.6 118.55 27.15 114.55 27.8 112.6 29.55 110.2 30.1 108.55 31.3 107.45 31.85 106.2 Q32.1 105.25 32.4 104.9 L33.25 103.85 34.1 102.75 34.4 101.9 34.7 101.1 36.15 98.85 Q37.05 97.5 37.25 96.35 36.7 96.05 36.5 95.2 36.3 94.25 36.8 93.65 37.0 93.05 37.9 91.9 L39.2 90.25 40.55 87.7 Q41.35 85.95 41.9 85.15 42.2 84.7 43.45 84.3 L44.75 83.7 45.2 83.05 45.2 82.65 44.8 82.25 45.0 80.35 43.85 78.5 43.65 76.95 42.15 74.6 41.75 73.5 41.45 72.25 41.05 72.0 40.75 71.2 40.45 70.45 39.05 69.25 38.8 68.1 38.25 67.35 37.65 66.5 37.15 64.7 36.5 63.0 35.7 62.1 34.95 61.2 34.6 59.85 34.25 58.55 33.4 57.65 33.15 57.05 33.05 56.35 32.45 55.45 31.9 54.55 30.55 51.3 29.05 48.8 28.45 47.1 27.95 46.45 Q27.85 46.25 27.9 45.6 L27.7 44.9 27.3 44.75 26.6 43.6 26.2 42.45 25.6 41.5 25.5 40.6 24.7 39.5 24.05 38.25 23.8 36.95 23.05 35.9 23.05 35.4 22.45 35.05 21.9 34.6 Q21.7 33.95 22.15 33.2 22.55 32.45 23.0 32.3 23.55 31.9 24.8 31.85 L26.85 31.9 Q27.0 30.8 27.5 30.65 L28.85 30.4 29.25 29.9 Q30.4 29.15 31.95 29.15 L33.1 29.0 34.15 29.1 34.95 29.65 35.7 30.3 36.5 30.4 37.5 30.45 38.15 31.15 38.65 31.9 39.2 32.15 39.8 32.45 39.8 32.6 40.15 33.35 41.75 34.8 42.25 36.55 Q42.55 37.85 42.75 38.2 L43.4 38.65 44.15 39.1 44.35 39.75 44.5 40.4 45.2 41.3 45.9 42.25 46.35 43.55 46.85 44.85 48.5 47.35 48.85 48.75 49.35 49.35 49.8 50.05 49.8 50.85 50.55 52.0 50.65 52.8 51.6 54.55 52.65 56.2 53.15 57.55 53.6 59.05 54.2 59.95 54.6 61.0 54.3 62.65 55.1 63.45 56.05 64.0 56.55 63.5 56.9 62.85 Q55.75 62.2 56.4 60.45 56.7 59.7 57.75 58.1 61.65 52.45 65.45 44.4 L66.55 42.6 67.75 41.0 68.1 40.0 68.4 39.05 68.95 38.35 69.5 37.65 69.65 36.95 69.8 36.2 70.15 35.9 70.55 35.6 70.7 35.1 70.85 34.6 71.25 34.1 71.65 33.6 71.8 32.9 71.95 32.15 72.8 30.75 73.7 29.4 74.15 27.6 74.8 26.95 75.35 25.4 76.0 23.9 Q76.95 22.35 79.2 19.95 79.55 19.65 79.7 18.65 L80.05 17.15 Q80.25 16.75 81.0 16.0 L81.9 14.75 82.05 13.5 82.5 13.0 82.85 12.5 83.25 11.35 Q83.4 10.65 83.65 10.3 L84.35 9.95 84.8 8.55 86.65 5.35 Q87.85 3.5 89.15 2.7 L90.4 2.6 91.75 2.55 92.35 1.95 93.1 1.4 93.85 1.25 94.75 1.15 95.5 0.7 Q96.0 0.25 96.3 0.2 L99.7 0.1 102.9 0.55 103.55 1.5 Q103.55 3.4 102.9 4.9 L101.55 7.5 M79.55 104.05 L78.75 104.7 75.7 105.2 72.15 105.2 72.65 106.5 73.3 107.65 73.35 110.1 73.85 110.95 74.35 111.75 74.45 113.1 75.2 113.9 Q75.85 114.9 76.45 117.0 L77.1 118.2 77.75 119.5 77.75 120.5 78.25 121.4 78.25 122.15 78.6 122.6 79.0 123.1 79.1 124.9 Q79.05 125.9 79.4 126.45 L80.2 126.6 Q80.7 126.15 81.55 125.75 L83.05 125.0 83.85 124.25 85.15 123.9 86.0 122.95 Q86.5 122.45 87.0 122.25 L88.2 122.15 88.65 121.8 89.1 121.4 90.25 121.05 90.85 120.3 91.35 119.5 92.15 119.0 93.05 118.65 94.1 117.4 Q96.75 115.75 98.1 114.25 100.1 112.1 100.5 109.45 L98.45 107.5 Q98.05 107.2 97.15 107.2 L95.65 107.0 94.85 106.2 92.3 105.9 90.65 105.35 90.25 104.95 Q89.65 104.7 88.8 105.15 L87.25 105.4 Q86.95 105.35 86.6 105.05 L86.0 104.6 82.0 104.65 80.9 104.15 79.55 104.05" fill="url(#gradient0)" fill-rule="evenodd" stroke="none"/>
    </g>
    <linearGradient gradientTransform="matrix(0.0, 0.106, 0.106, 0.0, 59.0, 86.8)" gradientUnits="userSpaceOnUse" id="gradient0" spreadMethod="pad" x1="-819.2" x2="819.2">
      <stop offset="0.0" stop-color="#ffffff"/>
      <stop offset="0.4980392156862745" stop-color="#ffffff"/>
      <stop offset="1.0" stop-color="#ffffff"/>
    </linearGradient>
  </defs>
</svg>
