<svg xmlns:xlink="http://www.w3.org/1999/xlink" height="173.7" width="118.1" xmlns="http://www.w3.org/2000/svg"><use height="173.7" width="118.1" xlink:href="#a"/><defs><path d="M101.55 7.5l-.45 1.6-.6 1.5-.55.25-.5.25q-.3.25-.5.95l-.35 1.05-.5.6q-.45.4-.55.5-.6.9-1.1 2.3l-.15 1.7-1.15.85-.55 1.35-.45 1.35-.55.55-.5.6-.2.85-.2.8-.7.5q-1.55 2.05-2 3.05l-.2 1.7-.5.55q-.45.3-.55.55l-.15 1.55-1.15 1.15-.6 1.5-.55.35-.5.4-.15.9-1.6 2.25-1.05.9-.15.65-.8.75v.65l-.35.35-.45.25q-.55.8-.95 2.05l-.15 1.4-.95.9-.4 1.15-.45.6-.45.65-.15.75-.95 1.1-.95 1.1-.25 1.15-.3 1.1-1.05.9-.45 1-.65.6q-.5.35-.65.55-.3.4-.5 1.2l-.45 1.35-.85 1.25-.9 1.3-1.1 2.8-.1.75-.2.65-1.55 1.1-.15 1.55-.75.8-.7.75-.3 1.15-.3 1.15L63.3 75l-1.1 3.15q-.1.45.1 1l.25 1.1h.4q.35-.55 1.25-1.15l1.25-1q1.5-1.9 4.5-4.15l.8-1.1.8-.4.9-.35 1.1-1.05 1.1-1.1q.3-.15.9-.35l.85-.35.9-1 1.15-.4.3-.5.25-.5q.25-.2 1.05-.4.8-.15 1.05-.5l.25-.55.3-.6 1-.15.95-.25 1.05-1.05 1-.1 1.9-1.25q.7-.45 1.9-.75l2.1-.55 1.15-.5 1.1-.6 3.05-.25 3.4.15 1.4-.1h1.4l2.6-.05q1.8.55 3.35 1.65l2.75 2.15q1.3.9 2.3 1.15.3-.35 1.15.3l1.3.95.85 1.2.65 1.3q.2.8-.1 1.75l-.6 1.3q-.75 1.4-2.9 2.75l-3.7 1.85-2.9 1.75q-1.75 1-3.6.95l-1.1-1.15q-.55-.7-.55-1.75.7-.6.8-1.15l.65-.6q.2-.35-.8-.55-1.6-1.9-1.55-2.2l-1.55-1.05q-.8-.8-1.5-.95-.75-.15-1.4.4l-.95.95-1.4.45q-1.9 1.15-3.55 1.5-.25 1.05-.9 1.35l-1.75.5-1.55 1.25q-.25.25-.55 1l-.55.9-.7.3-.85.15q-.4.2-.95.65l-.9.65-.9.2q-.35.25-.6.95l-.5 1.1-1.1.95-1.1.95-.65 1.05-.7 1.1-.65.3-.65.3-.25.65-.2.65-.65.6q-.2.25-.25.7l-.15.85-.45.7-.4.65.05 1.35.3 1.3q.65.15.9.8l.6 1q.75.6 2.35.8l2.55.35 1.4-.1.5.4.4.4 1.4-.2 1.7-.1.3.25.35.25 1.15.05q2.85.8 3.85.6l1.55-.25 1.6.3 1.5.05 2.75-.25 2.95.1.3.3.35.25 1.15.35 1.15.2 1.65.05.9.55 1.8.05.5.4 1.55.5 1.4.6 1.05 1.15 1.15.55q.35.5.55 1.7 1.8 4.65 1.3 6.35l-.6 1.9q-.4 1.15-.4 2.2l.45.25.3.4q0 1.9-.3 2.3l-3.85 4.05-.9.6q-.15.25-.15.85l-.15.7-1.65 1.3-1.9 1.05-.7 1.05-1.2.7q-.9.35-1.25.65l-.85.85-.85.9-.65.25-.65.25q-.2.1-.65.55l-.7.55-.95.25-.85.2-.95.9-.9.1-.55.65-1.2.35-1.25.35-1 .8-1.1.8-1.85.5-.8 1.1-.9 1.05-1.4.25-1.6.05-.5.45-.55.45-1 .2-1.05.15-2.5.95-1.15.1q-.4.15-1.4.95l-1.65 1.05-1.4.1-1.7.85-2.8.6-2.8.4h-1.65l-1.45.6-3.85-.2-3.85-.25-4.4-1-.9-1.3q0-.85.3-1.6l.45-1.35 1.15-.8 1.1-.85 1-.35.35-.45.35-.4 1.3-.35.75-.7q.4-.45.85-.55L60 136l2.65-.3.55-.4.55-.45q.3-.2.8-.3l.9-.3.65-.5q.35-.4.65-.5l.9-.1 1.95-1.4 1.75-.6 1.8-.6.7-.7.6-.85.6-.4.35-.7-.3-.05-1.1-.05-1.2-.1-2.4-1.95-.3-.9-.3-.9-.4-.5-.35-.45-.2-.9-.3-.8-1.5-1.55-.1-1.2-.7-1.3h-.3q0 1.35-.7 1.8-1.1.75-2-.5l-1.15-2-1.4-1.35-.2-.7-.15-.85-.35-.45-.4-.45-.35-1.2-.4-1.15-1-1.5-.95-1.5-.2-.7-.15-.6-1-1.35-.9-1.4-.45-1.65-.5-1.6-1-1.15-1.15-1.1-.65-.85q-.4-.5-.9-.6l-.25.4-.25.35-.1 1-.2.8-.95.85-.9.8v.35l-.5.55-.45.6-.15 1.15-.55.4q-.15.25-.35.85l-.45.8-.75.9-.7.85-.15.95-.55.45-.65.35-.3.75-.2.7-1.25 1.45-1.2 1.45-.8 1.8-.8 1.75-.9.75-.15.4-.15.35-.95.8-.2.8-.2.7-.95.9-.2 1.05-.3.85-1.35 1.15q-.25.3-.45.95l-.35.95-1.5 2q-.95 1.25-1.35 2.05v.65l-1.05 2.05-1.05 1.35-1 1.4-.1 1.15-.65.55-.7.5q-.3.35-.5 1.25l-.45 1.25-.95.9-1.35 3.05-.95.9-.15 1.35-1.2 1.15-.35 1.15-.3 1.05-1.9 3.05-.35.75-.35.75-.8.65q-.4.65-1.05 2.25l-1.1 2.2-.8.9-.8.9-.15.6-.75.65-.15.5-.15.4-.35.1-.45.1-.25.6-.3.55-.95.75q-.7.4-.85.75-.4.65-.65 1.7l-.6 1.75-1.1 1.65-.4 1.05-.7.7-2.3.15-.25-.45q-.5-.65.1-2.85l.95-2.9-.7-.2-.45-.5q-.8-.9 1.3-4.7l.2-.75.2-.8.55-.8.55-.85.15-1q.05-.6.25-.9l2.55-4.2.3-1.15.9-1.3.6-1.75.9-1.4.8-1.5.25-.8.2-.75 2.45-3.8.7-1.85.9-1.75 1.45-2 1.35-2.15.85-1.95.95-1.9 1.55-2 1-2 .65-.5.2-.75.2-.7 2.45-4.1 2.55-4 .65-1.95 1.75-2.4.55-1.65 1.2-1.1.55-1.25q.25-.95.55-1.3l.85-1.05.85-1.1.3-.85.3-.8 1.45-2.25q.9-1.35 1.1-2.5-.55-.3-.75-1.15-.2-.95.3-1.55.2-.6 1.1-1.75l1.3-1.65 1.35-2.55q.8-1.75 1.35-2.55.3-.45 1.55-.85l1.3-.6.45-.65v-.4l-.4-.4.2-1.9-1.15-1.85-.2-1.55-1.5-2.35-.4-1.1-.3-1.25-.4-.25-.3-.8-.3-.75-1.4-1.2-.25-1.15-.55-.75-.6-.85-.5-1.8-.65-1.7-.8-.9-.75-.9-.35-1.35-.35-1.3-.85-.9-.25-.6-.1-.7-.6-.9-.55-.9-1.35-3.25-1.5-2.5-.6-1.7-.5-.65q-.1-.2-.05-.85l-.2-.7-.4-.15-.7-1.15-.4-1.15-.6-.95-.1-.9-.8-1.1-.65-1.25-.25-1.3-.75-1.05v-.5l-.6-.35-.55-.45q-.2-.65.25-1.4.4-.75.85-.9.55-.4 1.8-.45l2.05.05q.15-1.1.65-1.25l1.35-.25.4-.5q1.15-.75 2.7-.75L33.1 29l1.05.1.8.55.75.65.8.1 1 .05.65.7.5.75.55.25.6.3v.15l.35.75 1.6 1.45.5 1.75q.3 1.3.5 1.65l.65.45.75.45.2.65.15.65.7.9.7.95.45 1.3.5 1.3 1.65 2.5.35 1.4.5.6.45.7v.8l.75 1.15.1.8.95 1.75 1.05 1.65.5 1.35.45 1.5.6.9.4 1.05-.3 1.65.8.8.95.55.5-.5.35-.65q-1.15-.65-.5-2.4.3-.75 1.35-2.35 3.9-5.65 7.7-13.7l1.1-1.8 1.2-1.6.35-1 .3-.95.55-.7.55-.7.15-.7.15-.75.35-.3.4-.3.15-.5.15-.5.4-.5.4-.5.15-.7.15-.75.85-1.4.9-1.35.45-1.8.65-.65.55-1.55.65-1.5q.95-1.55 3.2-3.95.35-.3.5-1.3l.35-1.5q.2-.4.95-1.15l.9-1.25.15-1.25.45-.5.35-.5.4-1.15q.15-.7.4-1.05l.7-.35.45-1.4 1.85-3.2q1.2-1.85 2.5-2.65l1.25-.1 1.35-.05.6-.6.75-.55.75-.15.9-.1.75-.45q.5-.45.8-.5l3.4-.1 3.2.45.65.95q0 1.9-.65 3.4l-1.35 2.6m-22 96.55l-.8.65-3.05.5h-3.55l.5 1.3.65 1.15.05 2.45.5.85.5.8.1 1.35.75.8q.65 1 1.25 3.1l.65 1.2.65 1.3v1l.5.9v.75l.35.45.4.5.1 1.8q-.05 1 .3 1.55l.8.15q.5-.45 1.35-.85l1.5-.75.8-.75 1.3-.35.85-.95q.5-.5 1-.7l1.2-.1.45-.35.45-.4 1.15-.35.6-.75.5-.8.8-.5.9-.35 1.05-1.25q2.65-1.65 4-3.15 2-2.15 2.4-4.8l-2.05-1.95q-.4-.3-1.3-.3l-1.5-.2-.8-.8-2.55-.3-1.65-.55-.4-.4q-.6-.25-1.45.2l-1.55.25q-.3-.05-.65-.35l-.6-.45-4 .05-1.1-.5-1.35-.1" fill="url(#b)" fill-rule="evenodd" id="a"/><linearGradient gradientTransform="matrix(0 .106 .106 0 59 86.8)" gradientUnits="userSpaceOnUse" id="b" x1="-819.2" x2="819.2"><stop offset="0" stop-color="#ffeb00"/><stop offset=".498" stop-color="#f09017"/><stop offset="1" stop-color="#df001e"/></linearGradient></defs></svg>